<?xml version="1.0" encoding="utf-8"?>
<!-- Generator: Adobe Illustrator 28.0.0, SVG Export Plug-In . SVG Version: 6.00 Build 0)  -->
<svg version="1.1" id="Layer_1" xmlns="http://www.w3.org/2000/svg" xmlns:xlink="http://www.w3.org/1999/xlink" x="0px" y="0px"
	 viewBox="0 0 2336.3 1262.94" style="enable-background:new 0 0 2336.3 1262.94;" xml:space="preserve">
<style type="text/css">
	.st0{fill:#FFFFFF;}
</style>
<g>
	<path class="st0" d="M582.4,736.32c-17.71-10.24-31.25-24.26-40.64-42.08c-9.39-17.81-14.08-37.81-14.08-60
		c0-23.04,4.96-43.62,14.88-61.76c9.92-18.13,23.79-32.27,41.6-42.4c17.81-10.13,38.02-15.2,60.64-15.2
		c14.08,0,27.04,1.92,38.88,5.76c11.84,3.84,21.6,8.64,29.28,14.4v34.56c-8.75-7.25-18.51-13.06-29.28-17.44
		c-10.78-4.37-23.2-6.56-37.28-6.56c-17.07,0-32.05,3.74-44.96,11.2c-12.91,7.47-22.88,17.81-29.92,31.04
		c-7.04,13.23-10.56,28.16-10.56,44.8c0,16.64,3.52,31.68,10.56,45.12c7.04,13.44,17.01,23.95,29.92,31.52
		c12.91,7.58,28,11.36,45.28,11.36c13.22,0,25.54-2.13,36.96-6.4c11.41-4.26,21.38-9.81,29.92-16.64v32.96
		c-8.96,6.83-19.36,12.05-31.2,15.68c-11.84,3.62-24.27,5.44-37.28,5.44C621.01,751.68,600.1,746.56,582.4,736.32z"/>
	<path class="st0" d="M756.51,521.28h51.2l62.72,200.96h-8.64l64.96-200.96h48.64l17.28,224h-32.64l-13.76-212.16l5.76,0.64
		l-67.84,211.52h-37.44L780.19,532.8l5.44-0.64l-11.84,213.12h-30.72L756.51,521.28z"/>
	<path class="st0" d="M1061.08,739.52c-12.91-7.04-22.94-17.01-30.08-29.92c-7.15-12.91-10.72-28-10.72-45.28
		c0-16.21,3.09-30.67,9.28-43.36c6.19-12.69,15.15-22.61,26.88-29.76c11.73-7.15,25.92-10.72,42.56-10.72
		c13.65,0,25.71,2.72,36.16,8.16c10.45,5.44,18.5,13.33,24.16,23.68c5.65,10.35,8.48,22.77,8.48,37.28v21.12h-128.64l-0.32-22.08
		h104.32l-4.48,5.12v-4.48c0-13.23-3.68-23.46-11.04-30.72c-7.36-7.25-17.23-10.88-29.6-10.88c-10.24,0-18.83,2.29-25.76,6.88
		c-6.93,4.59-12,10.94-15.2,19.04c-3.2,8.11-4.91,17.6-5.12,28.48l-0.32,3.52c0.42,18.13,5.76,32.11,16,41.92
		c10.24,9.82,24.42,14.72,42.56,14.72c9.6,0,19.09-1.6,28.48-4.8c9.38-3.2,17.17-7.36,23.36-12.48v28.48
		c-6.19,4.91-14.29,8.91-24.32,12c-10.03,3.09-20.48,4.64-31.36,4.64C1089.08,750.08,1073.99,746.56,1061.08,739.52z"/>
	<path class="st0" d="M1222.9,739.52c-10.67-7.04-18.94-16.91-24.8-29.6c-5.87-12.69-8.8-27.15-8.8-43.36
		c0-16.85,3.2-31.84,9.6-44.96c6.4-13.12,15.2-23.25,26.4-30.4c11.2-7.15,23.62-10.72,37.28-10.72c13.87,0,25.54,3.63,35.04,10.88
		c9.49,7.25,17.01,18.67,22.56,34.24l-5.44,4.48v-115.2h30.4v230.4h-30.4v-49.92l3.2,8.96c-2.35,8.32-6.08,15.95-11.2,22.88
		c-5.12,6.94-11.58,12.48-19.36,16.64c-7.79,4.16-17.01,6.24-27.68,6.24C1245.83,750.08,1233.57,746.56,1222.9,739.52z
		 M1292.5,715.04c7.36-5.01,13.01-11.94,16.96-20.8c3.95-8.85,5.92-18.83,5.92-29.92c0-16.64-4.27-30.24-12.8-40.8
		c-8.54-10.56-20.05-15.84-34.56-15.84c-9.39,0-17.76,2.46-25.12,7.36c-7.36,4.91-12.96,11.74-16.8,20.48
		c-3.84,8.75-5.76,18.88-5.76,30.4c0,11.31,1.87,21.23,5.6,29.76c3.73,8.54,9.17,15.15,16.32,19.84c7.14,4.7,15.3,7.04,24.48,7.04
		C1276.55,722.56,1285.14,720.05,1292.5,715.04z"/>
	<path class="st0" d="M1385.37,550.56c-3.95-3.73-5.92-8.37-5.92-13.92c0-5.33,1.92-9.81,5.76-13.44c3.84-3.62,8.53-5.44,14.08-5.44
		c5.76,0,10.51,1.81,14.24,5.44c3.73,3.63,5.6,8.11,5.6,13.44c0,5.55-1.92,10.19-5.76,13.92c-3.84,3.74-8.43,5.6-13.76,5.6
		C1394.06,556.16,1389.31,554.29,1385.37,550.56z M1384.25,585.28h30.4v160h-30.4V585.28z"/>
	<path class="st0" d="M1483.64,738.88c-12.59-7.47-22.4-17.65-29.44-30.56c-7.04-12.91-10.56-27.46-10.56-43.68
		c0-16,3.46-30.4,10.4-43.2c6.93-12.8,16.75-22.83,29.44-30.08c12.69-7.25,27.25-10.88,43.68-10.88c11.09,0,20.64,1.17,28.64,3.52
		c8,2.35,15.09,5.55,21.28,9.6v32.32c-7.25-6.19-14.72-10.72-22.4-13.6c-7.68-2.88-16.22-4.32-25.6-4.32
		c-10.88,0-20.43,2.4-28.64,7.2c-8.21,4.8-14.56,11.47-19.04,20c-4.48,8.54-6.72,18.24-6.72,29.12c0,11.09,2.24,21.02,6.72,29.76
		c4.48,8.75,11.04,15.68,19.68,20.8s19.15,7.68,31.52,7.68c8.53,0,16.96-1.49,25.28-4.48c8.32-2.98,15.36-6.93,21.12-11.84v29.44
		c-7.68,4.91-15.73,8.54-24.16,10.88c-8.43,2.34-17.65,3.52-27.68,3.52C1510.73,750.08,1496.22,746.34,1483.64,738.88z"/>
	<path class="st0" d="M1626.48,743.2c-8.43-4.58-14.99-10.93-19.68-19.04c-4.7-8.1-7.04-17.06-7.04-26.88
		c0-10.24,2.45-19.3,7.36-27.2c4.91-7.89,11.73-14.02,20.48-18.4c8.75-4.37,18.77-6.56,30.08-6.56c11.94,0,22.02,2.72,30.24,8.16
		c8.21,5.44,13.81,12.21,16.8,20.32l-4.16,9.6v-31.68c0-13.87-3.79-24.64-11.36-32.32c-7.58-7.68-17.97-11.52-31.2-11.52
		c-9.6,0-18.61,1.87-27.04,5.6c-8.43,3.73-15.95,9.02-22.56,15.84v-30.4c7.46-5.54,15.57-9.97,24.32-13.28
		c8.75-3.31,18.67-4.96,29.76-4.96c13.87,0,25.97,2.67,36.32,8c10.34,5.33,18.24,13.07,23.68,23.2c5.44,10.14,8.16,22.35,8.16,36.64
		v96.96h-30.08v-40l4.16,7.36c-2.99,11.52-8.8,20.64-17.44,27.36c-8.64,6.72-19.36,10.08-32.16,10.08
		C1644.45,750.08,1634.91,747.78,1626.48,743.2z M1684.08,722.08c5.44-2.67,9.54-6.29,12.32-10.88c2.77-4.58,4.16-9.76,4.16-15.52
		c0-8.53-3.15-15.41-9.44-20.64c-6.29-5.22-14.77-7.84-25.44-7.84c-11.31,0-20,2.56-26.08,7.68s-9.12,12.27-9.12,21.44
		c0,8.96,3.04,16.16,9.12,21.6c6.08,5.44,14.67,8.16,25.76,8.16C1672.4,726.08,1678.64,724.75,1684.08,722.08z"/>
	<path class="st0" d="M1768.3,514.88h30.4v230.4h-30.4V514.88z"/>
</g>
</svg>
