<?xml version="1.0" encoding="UTF-8"?>
<svg id="Layer_1" xmlns="http://www.w3.org/2000/svg" version="1.1" viewBox="0 0 1312.88 281.01">
  <!-- Generator: Adobe Illustrator 30.3.0, SVG Export Plug-In . SVG Version: 2.1.3 Build 182)  -->
  <defs>
    <style>
      .st0 {
        fill: #fff;
      }
    </style>
  </defs>
  <path class="st0" d="M70.69,245.36c-17.71-10.24-31.25-24.26-40.64-42.08-9.39-17.81-14.08-37.81-14.08-60s4.96-43.62,14.88-61.76c9.92-18.13,23.79-32.27,41.6-42.4s38.02-15.2,60.64-15.2c14.08,0,27.04,1.92,38.88,5.76s21.6,8.64,29.28,14.4v34.56c-8.75-7.25-18.51-13.06-29.28-17.44-10.78-4.37-23.2-6.56-37.28-6.56-17.07,0-32.05,3.74-44.96,11.2-12.91,7.47-22.88,17.81-29.92,31.04s-10.56,28.16-10.56,44.8,3.52,31.68,10.56,45.12,17.01,23.95,29.92,31.52c12.91,7.58,28,11.36,45.28,11.36,13.22,0,25.54-2.13,36.96-6.4,11.41-4.26,21.38-9.81,29.92-16.64v32.96c-8.96,6.83-19.36,12.05-31.2,15.68-11.84,3.62-24.27,5.44-37.28,5.44-24.11,0-45.02-5.12-62.72-15.36Z"/>
  <path class="st0" d="M244.8,30.32h51.2l62.72,200.96h-8.64L415.04,30.32h48.64l17.28,224h-32.64l-13.76-212.16,5.76.64-67.84,211.52h-37.44l-66.56-212.48,5.44-.64-11.84,213.12h-30.72l13.44-224Z"/>
  <path class="st0" d="M549.37,248.56c-12.91-7.04-22.94-17.01-30.08-29.92-7.15-12.91-10.72-28-10.72-45.28,0-16.21,3.09-30.67,9.28-43.36,6.19-12.69,15.15-22.61,26.88-29.76s25.92-10.72,42.56-10.72c13.65,0,25.71,2.72,36.16,8.16,10.45,5.44,18.5,13.33,24.16,23.68,5.65,10.35,8.48,22.77,8.48,37.28v21.12h-128.64l-.32-22.08h104.32l-4.48,5.12v-4.48c0-13.23-3.68-23.46-11.04-30.72-7.36-7.25-17.23-10.88-29.6-10.88-10.24,0-18.83,2.29-25.76,6.88s-12,10.94-15.2,19.04c-3.2,8.11-4.91,17.6-5.12,28.48l-.32,3.52c.42,18.13,5.76,32.11,16,41.92,10.24,9.82,24.42,14.72,42.56,14.72,9.6,0,19.09-1.6,28.48-4.8,9.38-3.2,17.17-7.36,23.36-12.48v28.48c-6.19,4.91-14.29,8.91-24.32,12-10.03,3.09-20.48,4.64-31.36,4.64-17.28,0-32.37-3.52-45.28-10.56Z"/>
  <path class="st0" d="M711.19,248.56c-10.67-7.04-18.94-16.91-24.8-29.6-5.87-12.69-8.8-27.15-8.8-43.36s3.2-31.84,9.6-44.96,15.2-23.25,26.4-30.4c11.2-7.15,23.62-10.72,37.28-10.72s25.54,3.63,35.04,10.88c9.49,7.25,17.01,18.67,22.56,34.24l-5.44,4.48V23.92h30.4v230.4h-30.4v-49.92l3.2,8.96c-2.35,8.32-6.08,15.95-11.2,22.88-5.12,6.94-11.58,12.48-19.36,16.64-7.79,4.16-17.01,6.24-27.68,6.24-13.87,0-26.13-3.52-36.8-10.56ZM780.79,224.08c7.36-5.01,13.01-11.94,16.96-20.8,3.95-8.85,5.92-18.83,5.92-29.92,0-16.64-4.27-30.24-12.8-40.8-8.54-10.56-20.05-15.84-34.56-15.84-9.39,0-17.76,2.46-25.12,7.36-7.36,4.91-12.96,11.74-16.8,20.48-3.84,8.75-5.76,18.88-5.76,30.4s1.87,21.23,5.6,29.76c3.73,8.54,9.17,15.15,16.32,19.84,7.14,4.7,15.3,7.04,24.48,7.04,9.81,0,18.4-2.51,25.76-7.52Z"/>
  <path class="st0" d="M873.66,59.6c-3.95-3.73-5.92-8.37-5.92-13.92s1.92-9.81,5.76-13.44c3.84-3.62,8.53-5.44,14.08-5.44s10.51,1.81,14.24,5.44,5.6,8.11,5.6,13.44-1.92,10.19-5.76,13.92c-3.84,3.74-8.43,5.6-13.76,5.6s-10.3-1.87-14.24-5.6ZM872.54,94.32h30.4v160h-30.4V94.32Z"/>
  <path class="st0" d="M971.93,247.92c-12.59-7.47-22.4-17.65-29.44-30.56-7.04-12.91-10.56-27.46-10.56-43.68s3.46-30.4,10.4-43.2c6.93-12.8,16.75-22.83,29.44-30.08s27.25-10.88,43.68-10.88c11.09,0,20.64,1.17,28.64,3.52,8,2.35,15.09,5.55,21.28,9.6v32.32c-7.25-6.19-14.72-10.72-22.4-13.6s-16.22-4.32-25.6-4.32c-10.88,0-20.43,2.4-28.64,7.2s-14.56,11.47-19.04,20c-4.48,8.54-6.72,18.24-6.72,29.12s2.24,21.02,6.72,29.76c4.48,8.75,11.04,15.68,19.68,20.8s19.15,7.68,31.52,7.68c8.53,0,16.96-1.49,25.28-4.48,8.32-2.98,15.36-6.93,21.12-11.84v29.44c-7.68,4.91-15.73,8.54-24.16,10.88s-17.65,3.52-27.68,3.52c-16.43,0-30.94-3.74-43.52-11.2Z"/>
  <path class="st0" d="M1114.77,252.24c-8.43-4.58-14.99-10.93-19.68-19.04-4.7-8.1-7.04-17.06-7.04-26.88s2.45-19.3,7.36-27.2c4.91-7.89,11.73-14.02,20.48-18.4,8.75-4.37,18.77-6.56,30.08-6.56,11.94,0,22.02,2.72,30.24,8.16,8.21,5.44,13.81,12.21,16.8,20.32l-4.16,9.6v-31.68c0-13.87-3.79-24.64-11.36-32.32-7.58-7.68-17.97-11.52-31.2-11.52-9.6,0-18.61,1.87-27.04,5.6s-15.95,9.02-22.56,15.84v-30.4c7.46-5.54,15.57-9.97,24.32-13.28,8.75-3.31,18.67-4.96,29.76-4.96,13.87,0,25.97,2.67,36.32,8,10.34,5.33,18.24,13.07,23.68,23.2,5.44,10.14,8.16,22.35,8.16,36.64v96.96h-30.08v-40l4.16,7.36c-2.99,11.52-8.8,20.64-17.44,27.36-8.64,6.72-19.36,10.08-32.16,10.08-10.67,0-20.21-2.3-28.64-6.88ZM1172.37,231.12c5.44-2.67,9.54-6.29,12.32-10.88,2.77-4.58,4.16-9.76,4.16-15.52,0-8.53-3.15-15.41-9.44-20.64-6.29-5.22-14.77-7.84-25.44-7.84-11.31,0-20,2.56-26.08,7.68s-9.12,12.27-9.12,21.44,3.04,16.16,9.12,21.6,14.67,8.16,25.76,8.16c7.04,0,13.28-1.33,18.72-4Z"/>
  <path class="st0" d="M1256.59,23.92h30.4v230.4h-30.4V23.92Z"/>
</svg>